# xmcd
#
# Track frame offsets:
#	150
#	13555
#	25083
#	35829
#	48574
#	62280
#	73070
#	83412
#	97017
#	109208
#	119750
#	131848
#	144504
#	155261
#	163149
#	172056
#	183371
#	195496
#	208687
#	220345
#	230369
#	242235
#	252790
#
# Disc length: 3532 seconds
#
# Revision: 1
# Processed by: cddbd v1.5.2PL0 Copyright (c) Steve Scherf et al.
# Submitted via: audiograbber 1.83.01
#
DISCID=4c0dca17
DTITLE=Various Artist - Rounding Up The Gals: Great Female Country Vocals, Volume One
DYEAR=1900
DGENRE=
TTITLE0=Judy Perkins - The Moon Still Shines On The Moonshine Still
TTITLE1=Patsy Montana - Mama Never Said a Word About Love
TTITLE2=Jenny Lou Carson - I L-O-V-E You
TTITLE3=Rosalie Allen - It Wasn't God Who Made Honky Tonk Angels
TTITLE4=Kitty Wells - Death at the Bar
TTITLE5=Goldie Hill - Make Love to Me
TTITLE6=Ann Jones - Give Me a Hundred Reasons
TTITLE7=Molly O'Day - Don't Sell Daddy Any More Whiskey
TTITLE8=Jean Shepard - Twice the Lovin (In Half the Time)
TTITLE9=June Carter - Juke Box Blues
TTITLE10=Carolina Cotton - Lovin' Ducky Daddy
TTITLE11=Jenny Lou Carson - I'll Never Trust You Again
TTITLE12=Penny Nichols - Moutain Maw
TTITLE13=Jean Shepard - Jambalaya (On the Bayou)
TTITLE14=Patsy Cline - When A House Is Not a Home
TTITLE15=Ann Jones - Baby Sitter's Blues
TTITLE16=Jenny Lou Carson - What Do I Have to Do?
TTITLE17=Patsy Montana - Cowboy Rhythm
TTITLE18=Minnie Pearl - Man (Uh Huh)
TTITLE19=Jean Shepard - I Didn't Know the Gun Was Loaded
TTITLE20=Ann Jones - It Isn't Any Wonder (That I Love You)
TTITLE21=The Dinning Sisters - Bury Me Not on the Lone Prairie
TTITLE22=Anita Carter - Keep It a Secret
EXTD=
EXTT0=
EXTT1=
EXTT2=
EXTT3=
EXTT4=
EXTT5=
EXTT6=
EXTT7=
EXTT8=
EXTT9=
EXTT10=
EXTT11=
EXTT12=
EXTT13=
EXTT14=
EXTT15=
EXTT16=
EXTT17=
EXTT18=
EXTT19=
EXTT20=
EXTT21=
EXTT22=
PLAYORDER=
